<svg width="337" height="118" viewBox="0 0 337 118" fill="none" xmlns="http://www.w3.org/2000/svg">
<circle cx="103.418" cy="63.7311" r="35" transform="rotate(-61.6685 103.418 63.7311)" fill="white"/>
<mask id="mask0_6598_176253" style="mask-type:alpha" maskUnits="userSpaceOnUse" x="68" y="28" width="71" height="71">
<circle cx="103.418" cy="63.7311" r="35" transform="rotate(-61.6685 103.418 63.7311)" fill="#C4C4C4"/>
</mask>
<g mask="url(#mask0_6598_176253)">
<path d="M104.352 62.8497C99.0219 79.256 90.7448 108.989 85.9827 126.303L149.986 82.0805L144.587 33.3197C144.587 33.3197 111.825 56.6424 104.352 62.8497Z" fill="#94C78A"/>
</g>
<circle cx="103.705" cy="63.6451" r="21.1925" transform="rotate(-61.6685 103.705 63.6451)" fill="#94C78A"/>
<circle cx="105.234" cy="65.0348" r="35.5" transform="rotate(-61.6685 105.234 65.0348)" stroke="black"/>
<mask id="mask1_6598_176253" style="mask-type:alpha" maskUnits="userSpaceOnUse" x="70" y="30" width="71" height="71">
<circle cx="105.234" cy="65.0348" r="35" transform="rotate(-61.6685 105.234 65.0348)" fill="#C4C4C4"/>
</mask>
<g mask="url(#mask1_6598_176253)">
<path d="M87.3175 127.475L86.953 128.8L88.0838 128.019L152.087 83.7956L152.333 83.6259L152.3 83.3292L146.9 34.5684L146.807 33.7226L146.113 34.2161L146.403 34.6234C146.113 34.2161 146.113 34.2162 146.113 34.2164L146.112 34.2172L146.107 34.2204L146.09 34.2331L146.019 34.2833L145.743 34.4797C145.502 34.6521 145.146 34.9058 144.691 35.2307C143.78 35.8807 142.471 36.8162 140.876 37.9581C137.688 40.2419 133.358 43.3518 128.795 46.6557C119.677 53.2577 109.602 60.6519 105.85 63.7688L105.739 63.8613L105.694 63.9989C100.359 80.4183 92.0787 110.164 87.3175 127.475Z" stroke="black"/>
</g>
<circle cx="103.705" cy="63.6446" r="21.1925" transform="rotate(-61.6685 103.705 63.6446)" fill="#E0E0E0"/>
<circle cx="105.521" cy="64.9488" r="20.6925" transform="rotate(-61.6685 105.521 64.9488)" stroke="black"/>
<rect x="147.445" y="28" width="114" height="9" rx="4.5" fill="white"/>
<rect x="147.445" y="44" width="94" height="9" rx="4.5" fill="white"/>
<rect x="147.445" y="60" width="31" height="9" rx="4.5" fill="white"/>
<rect x="147.445" y="76" width="20" height="9" rx="4.5" fill="white"/>
<rect x="147.445" y="92" width="9" height="9" rx="4.5" fill="white"/>
<rect x="150.945" y="30.5" width="113" height="8" rx="4" stroke="black"/>
<rect x="150.945" y="46.5" width="93" height="8" rx="4" stroke="black"/>
<rect x="150.945" y="62.5" width="30" height="8" rx="4" stroke="black"/>
<rect x="150.945" y="78.5" width="19" height="8" rx="4" stroke="black"/>
<rect x="150.945" y="94.5" width="8" height="8" rx="4" stroke="black"/>
<path d="M150.443 106L264.443 106" stroke="#BBBBBB" stroke-dasharray="2 2"/>
<path d="M173.951 14.5362C174.647 14.3082 175.259 13.6722 175.259 12.7122C175.259 11.2482 174.083 10.5042 172.451 10.5042H169.391V19.0002H172.763C174.395 19.0002 175.631 18.2442 175.631 16.5882C175.631 15.4482 174.851 14.7402 173.951 14.5722V14.5362ZM172.367 11.8602C173.099 11.8602 173.699 12.1962 173.699 12.9402C173.699 13.6482 173.099 14.0202 172.427 14.0202H171.035V11.8602H172.367ZM172.583 15.2442C173.243 15.2442 173.939 15.6522 173.939 16.4922C173.939 17.2602 173.339 17.6682 172.547 17.6682H171.035V15.2442H172.583Z" fill="black"/>
<path d="M181.966 10.2642C179.422 10.2642 177.514 12.0642 177.514 14.7282C177.514 17.4162 179.422 19.2402 181.966 19.2402C184.522 19.2402 186.43 17.4882 186.43 14.8002C186.43 12.1242 184.534 10.2642 181.966 10.2642ZM181.966 17.7282C180.394 17.7282 179.278 16.4202 179.278 14.7282C179.278 13.0722 180.406 11.8002 181.966 11.8002C183.55 11.8002 184.678 13.1202 184.678 14.8002C184.678 16.4682 183.562 17.7282 181.966 17.7282Z" fill="black"/>
<path d="M188.831 19.0002H190.475L190.403 13.0962H190.451L194.135 19.0002H196.019V10.5042H194.351L194.435 16.5762H194.399L190.667 10.5042H188.831V19.0002Z" fill="black"/>
<path d="M201.933 19.0002C204.633 19.0002 206.565 17.5242 206.565 14.7282C206.565 11.8002 204.585 10.5042 201.777 10.5042H198.873V19.0002H201.933ZM201.861 11.8962C203.565 11.8962 204.801 12.8322 204.801 14.7402C204.801 16.7682 203.589 17.6322 201.789 17.6322H200.577V11.8962H201.861Z" fill="black"/>
<path d="M216.376 11.8962H218.908V10.5042H212.176V11.8962H214.696V19.0002H216.376V11.8962Z" fill="black"/>
<path d="M224.679 15.4482L227.667 10.5042H225.771L223.911 14.0082L222.003 10.5042H220.059L223.035 15.4482V19.0002H224.679V15.4482Z" fill="black"/>
<path d="M232.704 15.7482C234.384 15.7482 235.752 14.8842 235.752 13.0962C235.752 11.1522 234.3 10.5042 232.68 10.5042H229.56V19.0002H231.204V15.7482H232.704ZM232.644 11.8962C233.34 11.8962 233.976 12.2682 233.976 13.1082C233.976 13.9482 233.364 14.3682 232.656 14.3682H231.204V11.8962H232.644Z" fill="black"/>
<path d="M238.079 19.0002H243.803V17.6322H239.771V15.3522H243.383V13.9722H239.771V11.8962H243.659V10.5042H238.079V19.0002Z" fill="black"/>
<path d="M251.553 10.9962C250.869 10.5882 250.029 10.2642 248.949 10.2642C247.233 10.2642 245.853 11.1762 245.853 12.7962C245.853 14.1642 246.681 14.8962 248.409 15.3402C249.369 15.6042 250.041 15.9282 250.041 16.6962C250.041 17.4882 249.429 17.8842 248.613 17.8842C247.821 17.8842 246.765 17.5122 245.805 16.6962V18.5082C246.537 18.9402 247.545 19.2402 248.577 19.2402C250.209 19.2402 251.769 18.3402 251.769 16.5282C251.769 15.1842 250.905 14.4882 249.165 14.0082C248.109 13.7202 247.581 13.4562 247.581 12.7362C247.581 12.0402 248.097 11.6322 248.913 11.6322C249.729 11.6322 250.725 12.0522 251.553 12.6882V10.9962Z" fill="black"/>
<path d="M273.051 56.9003L273.051 59.5883L273.939 59.5883L273.939 53.1562L273.051 53.1562L273.051 55.8443L265.443 55.8443L265.443 56.9002L273.051 56.9003Z" fill="black"/>
<path d="M269.067 64.7897L273.939 67.7417L273.939 66.5657L269.943 64.3097L273.939 62.0297L273.939 60.8057L269.067 63.7577L265.443 63.7577L265.443 64.7897L269.067 64.7897Z" fill="black"/>
<path d="M269.091 72.8638C269.091 74.3878 269.919 75.6478 271.563 75.6478C273.363 75.6478 273.939 74.2198 273.939 72.7678L273.939 69.8518L265.443 69.8518L265.443 70.8838L269.091 70.8838L269.091 72.8638ZM273.051 72.8038C273.051 73.6558 272.643 74.5438 271.551 74.5438C270.459 74.5438 269.979 73.7038 269.979 72.8398L269.979 70.8838L273.051 70.8838L273.051 72.8038Z" fill="black"/>
<path d="M265.443 78.2181L265.443 83.6901L266.319 83.6901L266.319 79.2741L269.367 79.2741L269.367 83.2461L270.255 83.2461L270.255 79.2741L273.051 79.2741L273.051 83.5221L273.939 83.5221L273.939 78.2181L265.443 78.2181Z" fill="black"/>
<path d="M70.7635 11.8964H73.2955V10.5044H66.5635V11.8964H69.0835V19.0004H70.7635V11.8964Z" fill="black"/>
<path d="M77.7232 11.9324L79.1032 15.8564H76.3072L77.7232 11.9324ZM80.2072 19.0004H82.0432L78.7672 10.5044H76.7392L73.4152 19.0004H75.1672L75.8152 17.2244H79.5832L80.2072 19.0004Z" fill="black"/>
<path d="M89.0485 19.0004H91.1365L88.0765 14.5484L90.8365 10.5044H88.8445L87.1165 13.3844L85.3525 10.5044H83.3125L86.0965 14.5724L83.1085 19.0004H85.1125L87.0565 15.8324L89.0485 19.0004Z" fill="black"/>
<path d="M96.5299 11.9324L97.9099 15.8564H95.1139L96.5299 11.9324ZM99.0139 19.0004H100.85L97.5739 10.5044H95.5459L92.2219 19.0004H93.9739L94.6219 17.2244H98.3899L99.0139 19.0004Z" fill="black"/>
<path d="M107.303 14.5364C107.999 14.3084 108.611 13.6724 108.611 12.7124C108.611 11.2484 107.435 10.5044 105.803 10.5044H102.743V19.0004H106.115C107.747 19.0004 108.983 18.2444 108.983 16.5884C108.983 15.4484 108.203 14.7404 107.303 14.5724V14.5364ZM105.719 11.8604C106.451 11.8604 107.051 12.1964 107.051 12.9404C107.051 13.6484 106.451 14.0204 105.779 14.0204H104.387V11.8604H105.719ZM105.935 15.2444C106.595 15.2444 107.291 15.6524 107.291 16.4924C107.291 17.2604 106.691 17.6684 105.899 17.6684H104.387V15.2444H105.935Z" fill="black"/>
<path d="M111.379 19.0004H113.071V10.5044H111.379V19.0004Z" fill="black"/>
<path d="M115.937 19.0004H121.061V17.6324H117.581V10.5044H115.937V19.0004Z" fill="black"/>
<path d="M123.096 19.0004H124.788V10.5044H123.096V19.0004Z" fill="black"/>
<path d="M131.026 11.8964H133.558V10.5044H126.826V11.8964H129.346V19.0004H131.026V11.8964Z" fill="black"/>
<path d="M139.328 15.4484L142.316 10.5044H140.42L138.56 14.0084L136.652 10.5044H134.708L137.684 15.4484V19.0004H139.328V15.4484Z" fill="black"/>
</svg>
