<svg width="337" height="118" viewBox="0 0 337 118" fill="none" xmlns="http://www.w3.org/2000/svg">
<rect x="79.7358" y="58.7358" width="31" height="35" fill="white"/>
<rect width="31" height="8" transform="matrix(1 0 0 -1 79.7358 59.7358)" fill="#94C78A"/>
<rect x="116.736" y="42.7358" width="31" height="51" fill="white"/>
<rect width="31" height="12" transform="matrix(1 0 0 -1 116.736 42.7358)" fill="#94C78A"/>
<rect x="153.736" y="38.7358" width="31" height="55" fill="white"/>
<rect width="31" height="15" transform="matrix(1 0 0 -1 153.736 39.7358)" fill="#94C78A"/>
<rect x="190.736" y="57.7358" width="31" height="36" fill="white"/>
<rect width="31" height="10" transform="matrix(1 0 0 -1 190.736 58.7358)" fill="#94C78A"/>
<rect x="227.736" y="80.7358" width="31" height="13" fill="white"/>
<rect width="31" height="4" transform="matrix(1 0 0 -1 227.736 81.7358)" fill="#94C78A"/>
<rect x="83.2358" y="61.2358" width="30" height="34" stroke="black"/>
<rect x="0.5" y="-0.5" width="30" height="7" transform="matrix(1 0 0 -1 82.7358 60.7358)" stroke="black"/>
<rect x="120.236" y="44.7856" width="30" height="50.45" stroke="black"/>
<rect x="0.5" y="-0.5" width="30" height="11.6" transform="matrix(1 0 0 -1 119.736 44.3359)" stroke="black"/>
<rect x="157.236" y="41.2358" width="30" height="54" stroke="black"/>
<rect x="0.5" y="-0.5" width="30" height="14" transform="matrix(1 0 0 -1 156.736 40.7358)" stroke="black"/>
<rect x="194.236" y="60.2358" width="30" height="35" stroke="black"/>
<rect x="0.5" y="-0.5" width="30" height="9" transform="matrix(1 0 0 -1 193.736 59.7358)" stroke="black"/>
<rect x="231.236" y="83.2358" width="30" height="12" stroke="black"/>
<rect x="0.5" y="-0.5" width="30" height="3" transform="matrix(1 0 0 -1 230.736 82.7358)" stroke="black"/>
<path d="M76.7358 37.7358L267.736 37.7358" stroke="#BBBBBB" stroke-dasharray="2 2"/>
<path d="M76.7358 17.7358L267.736 17.7358" stroke="#BBBBBB" stroke-dasharray="2 2"/>
<path d="M76.7358 77.7358L267.736 77.7358" stroke="#BBBBBB" stroke-dasharray="2 2"/>
<path d="M76.7358 57.7358L267.736 57.7358" stroke="#BBBBBB" stroke-dasharray="2 2"/>
<path d="M76.7358 97.7358L267.736 97.7358" stroke="#BBBBBB" stroke-dasharray="2 2"/>
<path d="M110.56 6.36C109.72 7.092 108.808 7.464 107.86 7.464C106.216 7.464 105.052 6.216 105.052 4.488C105.052 2.772 106.204 1.536 107.836 1.536C108.736 1.536 109.612 1.884 110.476 2.52V0.78C109.708 0.300001 108.7 0 107.656 0C105.184 0 103.288 1.824 103.288 4.488C103.288 7.152 105.184 8.976 107.692 8.976C108.772 8.976 109.78 8.676 110.56 8.1V6.36Z" fill="black"/>
<path d="M116.406 1.668L117.786 5.592H114.99L116.406 1.668ZM118.89 8.736H120.726L117.45 0.24H115.422L112.098 8.736H113.85L114.498 6.96H118.266L118.89 8.736Z" fill="black"/>
<path d="M128.044 0.732C127.36 0.324 126.52 0 125.44 0C123.724 0 122.344 0.912 122.344 2.532C122.344 3.9 123.172 4.632 124.9 5.076C125.86 5.34 126.532 5.664 126.532 6.432C126.532 7.224 125.92 7.62 125.104 7.62C124.312 7.62 123.256 7.248 122.296 6.432V8.244C123.028 8.676 124.036 8.976 125.068 8.976C126.7 8.976 128.26 8.076 128.26 6.264C128.26 4.92 127.396 4.224 125.656 3.744C124.6 3.456 124.072 3.192 124.072 2.472C124.072 1.776 124.588 1.368 125.404 1.368C126.22 1.368 127.216 1.788 128.044 2.424V0.732Z" fill="black"/>
<path d="M136.07 8.736H137.762V0.24H136.07V3.612H132.362V0.24H130.67V8.736H132.362V5.004H136.07V8.736Z" fill="black"/>
<path d="M147.65 8.736C150.35 8.736 152.282 7.26 152.282 4.464C152.282 1.536 150.302 0.24 147.494 0.24H144.59V8.736H147.65ZM147.578 1.632C149.282 1.632 150.518 2.568 150.518 4.476C150.518 6.504 149.306 7.368 147.506 7.368H146.294V1.632H147.578Z" fill="black"/>
<path d="M154.69 8.736H156.382V0.24H154.69V8.736Z" fill="black"/>
<path d="M164.672 0.732C163.988 0.324 163.148 0 162.068 0C160.352 0 158.972 0.912 158.972 2.532C158.972 3.9 159.8 4.632 161.528 5.076C162.488 5.34 163.16 5.664 163.16 6.432C163.16 7.224 162.548 7.62 161.732 7.62C160.94 7.62 159.884 7.248 158.924 6.432V8.244C159.656 8.676 160.664 8.976 161.696 8.976C163.328 8.976 164.888 8.076 164.888 6.264C164.888 4.92 164.024 4.224 162.284 3.744C161.228 3.456 160.7 3.192 160.7 2.472C160.7 1.776 161.216 1.368 162.032 1.368C162.848 1.368 163.844 1.788 164.672 2.424V0.732Z" fill="black"/>
<path d="M170.67 1.632H173.202V0.24H166.47V1.632H168.99V8.736H170.67V1.632Z" fill="black"/>
<path d="M176.874 1.632H178.278C179.07 1.632 179.73 1.968 179.73 2.808C179.73 3.552 179.178 3.996 178.254 3.996H176.874V1.632ZM175.23 8.736H176.874V5.268H178.086L180.03 8.736H181.962L179.682 5.028C180.642 4.74 181.458 4.032 181.458 2.76C181.458 0.888 180.054 0.24 178.482 0.24H175.23V8.736Z" fill="black"/>
<path d="M184.089 8.736H185.781V0.24H184.089V8.736Z" fill="black"/>
<path d="M193.206 4.272C193.902 4.044 194.514 3.408 194.514 2.448C194.514 0.984 193.338 0.24 191.706 0.24H188.646V8.736H192.018C193.65 8.736 194.886 7.98 194.886 6.324C194.886 5.184 194.106 4.476 193.206 4.308V4.272ZM191.622 1.596C192.354 1.596 192.954 1.932 192.954 2.676C192.954 3.384 192.354 3.756 191.682 3.756H190.29V1.596H191.622ZM191.838 4.98C192.498 4.98 193.194 5.388 193.194 6.228C193.194 6.996 192.594 7.404 191.802 7.404H190.29V4.98H191.838Z" fill="black"/>
<path d="M200.702 8.976C203.09 8.976 204.314 7.548 204.314 5.388V0.24H202.646V5.364C202.646 6.432 202.142 7.5 200.726 7.5C199.31 7.5 198.806 6.396 198.806 5.364V0.24H197.162V5.388C197.162 7.548 198.35 8.976 200.702 8.976Z" fill="black"/>
<path d="M210.509 1.632H213.041V0.24H206.309V1.632H208.829V8.736H210.509V1.632Z" fill="black"/>
<path d="M215.069 8.736H216.761V0.24H215.069V8.736Z" fill="black"/>
<path d="M223.613 0C221.069 0 219.161 1.8 219.161 4.464C219.161 7.152 221.069 8.976 223.613 8.976C226.169 8.976 228.077 7.224 228.077 4.536C228.077 1.86 226.181 0 223.613 0ZM223.613 7.464C222.041 7.464 220.925 6.156 220.925 4.464C220.925 2.808 222.053 1.536 223.613 1.536C225.197 1.536 226.325 2.856 226.325 4.536C226.325 6.204 225.209 7.464 223.613 7.464Z" fill="black"/>
<path d="M230.478 8.736H232.122L232.05 2.832H232.098L235.782 8.736H237.666V0.24H235.998L236.082 6.312H236.046L232.314 0.24H230.478V8.736Z" fill="black"/>
<path d="M157.792 111.112L160.744 106.24H159.568L157.312 110.236L155.032 106.24H153.808L156.76 111.112V114.736H157.792V111.112Z" fill="black"/>
<path d="M162.796 114.736H168.268V113.86H163.852V110.812H167.824V109.924H163.852V107.128H168.1V106.24H162.796V114.736Z" fill="black"/>
<path d="M174.001 107.356L175.741 111.784H172.189L174.001 107.356ZM176.905 114.736H178.045L174.493 106.24H173.533L169.885 114.736H170.989L171.841 112.648H176.089L176.905 114.736Z" fill="black"/>
<path d="M181.205 107.128H183.017C184.037 107.128 184.949 107.476 184.949 108.58C184.949 109.528 184.265 110.068 183.065 110.068H181.205V107.128ZM180.173 114.736H181.205V110.944H182.933L185.153 114.736H186.353L183.977 110.824C184.985 110.656 186.029 110.032 186.029 108.568C186.029 106.768 184.625 106.24 183.197 106.24H180.173V114.736Z" fill="black"/>
<path d="M65.72 67.5998C66.632 68.5118 67.076 69.5558 67.076 70.5878C67.076 72.5918 65.516 73.9478 63.488 73.9478C61.46 73.9478 59.912 72.5798 59.912 70.5998C59.912 69.6038 60.308 68.6918 61.076 67.7438L59.9 67.7438C59.324 68.5358 59 69.6038 59 70.6958C59 73.1918 60.86 75.0518 63.488 75.0518C66.128 75.0518 67.976 73.2038 67.976 70.6838C67.976 69.5318 67.616 68.4638 66.932 67.5998L65.72 67.5998Z" fill="black"/>
<path d="M60.356 61.9273L64.784 60.1873L64.784 63.7393L60.356 61.9273ZM67.736 59.0233L67.736 57.8833L59.24 61.4353L59.24 62.3953L67.736 66.0433L67.736 64.9393L65.648 64.0873L65.648 59.8393L67.736 59.0233Z" fill="black"/>
<path d="M59.756 50.8473C59.312 51.4713 59 52.2393 59 53.1993C59 54.7473 59.864 56.0073 61.388 56.0073C62.804 56.0073 63.44 55.1433 63.884 53.5953C64.184 52.5993 64.556 51.7473 65.564 51.7473C66.512 51.7473 67.136 52.4433 67.136 53.4993C67.136 54.3033 66.752 55.1553 65.936 56.1153L67.184 56.1153C67.64 55.3953 67.976 54.5313 67.976 53.5113C67.976 52.0233 67.112 50.6673 65.48 50.6673C64.076 50.6673 63.452 51.6153 62.984 53.1873C62.684 54.2073 62.348 54.9393 61.364 54.9393C60.416 54.9393 59.852 54.2553 59.852 53.2593C59.852 52.4313 60.248 51.6393 60.944 50.8473L59.756 50.8473Z" fill="black"/>
<path d="M67.736 42.2875L67.736 41.2315L59.24 41.2315L59.24 42.2875L62.888 42.2875L62.888 46.8835L59.24 46.8835L59.24 47.9515L67.736 47.9515L67.736 46.8835L63.764 46.8835L63.764 42.2875L67.736 42.2875Z" fill="black"/>
</svg>
