<svg width="337" height="118" viewBox="0 0 337 118" fill="none" xmlns="http://www.w3.org/2000/svg">
<rect x="223" y="33.4668" width="48" height="65" fill="white"/>
<rect x="169" y="33.4668" width="48" height="65" fill="white"/>
<rect x="115" y="33.4668" width="48" height="65" fill="white"/>
<rect x="61" y="33.4668" width="48" height="65" fill="white"/>
<path d="M278.229 36V35.5H277.729V36H278.229ZM278.229 100H277.729V100.5H278.229V100ZM57.7706 100V100.5H58.2706L58.2706 100L57.7706 100ZM57.7706 36L58.2706 36L58.2706 35.5H57.7706V36ZM272.45 100V100.5H272.95V100H272.45ZM272.45 36H272.95V35.5H272.45V36ZM224.56 36V35.5H224.06V36H224.56ZM224.56 100H224.06V100.5H224.56V100ZM218.78 36H219.28V35.5H218.78V36ZM170.89 36V35.5H170.39V36H170.89ZM218.78 100V100.5H219.28V100H218.78ZM170.89 100H170.39V100.5H170.89V100ZM165.11 36H165.61V35.5H165.11V36ZM165.11 100V100.5H165.61V100H165.11ZM117.22 36V35.5H116.72V36H117.22ZM117.22 100H116.72V100.5H117.22V100ZM111.44 36H111.94V35.5H111.44V36ZM63.5505 36V35.5H63.0505L63.0505 36L63.5505 36ZM111.44 100V100.5H111.94V100H111.44ZM63.5505 100L63.0505 100L63.0505 100.5H63.5505V100ZM35.8899 28.5C33.9324 28.5 32.5 30.3847 32.5 32.5H33.5C33.5 30.7493 34.6553 29.5 35.8899 29.5V28.5ZM300.11 28.5H35.8899V29.5H300.11V28.5ZM303.5 32.5C303.5 30.3847 302.068 28.5 300.11 28.5V29.5C301.345 29.5 302.5 30.7493 302.5 32.5H303.5ZM300.11 36.5C302.068 36.5 303.5 34.6153 303.5 32.5H302.5C302.5 34.2507 301.345 35.5 300.11 35.5V36.5ZM278.229 36.5H300.11V35.5H278.229V36.5ZM277.729 36V100H278.729V36H277.729ZM300.11 99.5H278.229V100.5H300.11V99.5ZM303.5 103.5C303.5 101.385 302.068 99.5 300.11 99.5V100.5C301.345 100.5 302.5 101.749 302.5 103.5H303.5ZM300.11 107.5C302.068 107.5 303.5 105.615 303.5 103.5H302.5C302.5 105.251 301.345 106.5 300.11 106.5V107.5ZM35.8899 107.5H300.11V106.5H35.8899V107.5ZM32.5 103.5C32.5 105.615 33.9324 107.5 35.8899 107.5V106.5C34.6553 106.5 33.5 105.251 33.5 103.5H32.5ZM35.8899 99.5C33.9324 99.5 32.5 101.385 32.5 103.5H33.5C33.5 101.749 34.6553 100.5 35.8899 100.5V99.5ZM57.7706 99.5H35.8899V100.5H57.7706V99.5ZM57.2706 36L57.2706 100L58.2706 100L58.2706 36L57.2706 36ZM35.8899 36.5H57.7706V35.5H35.8899V36.5ZM32.5 32.5C32.5 34.6153 33.9324 36.5 35.8899 36.5V35.5C34.6553 35.5 33.5 34.2507 33.5 32.5H32.5ZM272.95 100V36H271.95V100H272.95ZM224.56 36.5H272.45V35.5H224.56V36.5ZM225.06 100V36H224.06V100H225.06ZM272.45 99.5H224.56V100.5H272.45V99.5ZM218.78 35.5H170.89V36.5H218.78V35.5ZM219.28 100V36H218.28V100H219.28ZM170.89 100.5H218.78V99.5H170.89V100.5ZM170.39 36V100H171.39V36H170.39ZM164.61 36V100H165.61V36H164.61ZM117.22 36.5H165.11V35.5H117.22V36.5ZM117.72 100V36H116.72V100H117.72ZM165.11 99.5H117.22V100.5H165.11V99.5ZM111.44 35.5H63.5505V36.5H111.44V35.5ZM111.94 100V36H110.94V100H111.94ZM63.5505 100.5H111.44V99.5H63.5505V100.5ZM63.0505 36L63.0505 100L64.0505 100L64.0505 36L63.0505 36Z" fill="black"/>
<path d="M78.4505 48.9912V49.0152C79.3265 49.1592 80.3225 49.8432 80.3225 51.1032C80.3225 52.7712 78.9665 53.4672 77.5145 53.4672H74.4785V44.9712H77.2145C78.7505 44.9712 79.9505 45.6672 79.9505 47.1312C79.9505 48.1392 79.1945 48.7872 78.4505 48.9912ZM77.1305 45.8352H75.5105V48.6192H77.1905C78.0905 48.6192 78.9665 48.1752 78.9665 47.2152C78.9665 46.2072 78.1025 45.8352 77.1305 45.8352ZM77.4305 49.4832H75.5105V52.6032H77.3465C78.4505 52.6032 79.2665 52.1352 79.2665 51.0912C79.2665 49.9632 78.2705 49.4832 77.4305 49.4832Z" fill="black"/>
<path d="M81.522 50.5992C81.522 48.7392 82.854 47.5272 84.558 47.5272C86.274 47.5272 87.594 48.6912 87.594 50.5752C87.594 52.4352 86.274 53.6472 84.558 53.6472C82.854 53.6472 81.522 52.4712 81.522 50.5992ZM82.506 50.5752C82.506 51.8472 83.31 52.8552 84.558 52.8552C85.806 52.8552 86.61 51.8472 86.61 50.5992C86.61 49.3392 85.806 48.3312 84.558 48.3312C83.31 48.3312 82.506 49.3272 82.506 50.5752Z" fill="black"/>
<path d="M90.1556 48.3432H90.1676C90.8516 47.7912 91.3436 47.5392 92.1476 47.5392C93.5276 47.5392 94.3196 48.4272 94.3196 49.7232V53.4672H93.3476V49.7952C93.3476 49.0152 92.8676 48.3312 91.9316 48.3312C91.3076 48.3312 90.8036 48.6312 90.1916 49.2432V53.4672H89.2196V48.9432C89.2196 48.4752 89.1836 48.1032 89.1116 47.7072H90.0596C90.1076 47.8872 90.1436 48.1512 90.1556 48.3432Z" fill="black"/>
<path d="M100.597 51.9552V49.1952C99.8885 48.5952 99.4085 48.3312 98.6165 48.3312C97.4885 48.3312 96.7325 49.3392 96.7325 50.5752C96.7325 51.8352 97.5005 52.8552 98.6525 52.8552C99.4325 52.8552 99.9725 52.5672 100.597 51.9552ZM100.597 52.8312H100.585C100.033 53.3112 99.5045 53.6352 98.5685 53.6352C96.9245 53.6352 95.7485 52.4472 95.7485 50.6112C95.7485 48.7392 96.9725 47.5392 98.5445 47.5392C99.4565 47.5392 100.057 47.8512 100.585 48.2232H100.597V44.9712H101.581V53.4672H100.597V52.8312Z" fill="black"/>
<path d="M75.9134 89.5792L78.8414 86.5312C79.7294 85.6192 80.1614 84.9832 80.1614 84.2512C80.1614 83.3032 79.5254 82.6912 78.6014 82.6912C77.6414 82.6912 76.9454 83.1592 76.0694 84.0832V82.8712C76.7654 82.2112 77.5334 81.8032 78.7094 81.8032C80.1614 81.8032 81.2174 82.6792 81.2174 84.1072C81.2174 85.2832 80.5934 86.0152 79.5734 87.0712L77.1734 89.5792H81.2654V90.4672H75.9134V89.5792Z" fill="black"/>
<path d="M86.1922 93.4312V92.5432C86.6482 92.3872 87.0443 92.1352 87.4403 91.0792L87.5363 90.8272C87.6203 90.5992 87.6203 90.4672 87.5243 90.2392L85.3043 84.7072H86.3962L88.1483 89.5192L89.7922 84.7072H90.8363L88.3883 91.1632C87.8243 92.6632 87.2482 93.2632 86.1922 93.4312Z" fill="black"/>
<path d="M93.0322 85.6192H93.0562C93.4162 84.8632 94.1122 84.5392 94.9762 84.5392H95.1562V85.4152C95.0363 85.3912 94.9043 85.3792 94.7843 85.3792C93.9923 85.3792 93.5002 85.8112 93.0802 86.5672V90.4672H92.1082V85.9432C92.1082 85.4752 92.0722 85.1032 92.0002 84.7072H92.9482C92.9962 84.9472 93.0322 85.2832 93.0322 85.6192Z" fill="black"/>
<path d="M95.8718 90.0352V88.9312C96.4358 89.4352 97.2038 89.8552 97.9478 89.8552C98.6078 89.8552 99.1118 89.5432 99.1118 88.9672C99.1118 88.3192 98.6678 88.1512 97.5638 87.8752C96.5438 87.6232 95.9438 87.0592 95.9438 86.1952C95.9438 85.0432 97.0718 84.5272 98.0198 84.5272C98.7518 84.5272 99.3158 84.7192 99.8558 85.0552V86.1112C99.2678 85.6192 98.7158 85.3192 98.0318 85.3192C97.4918 85.3192 96.9278 85.5472 96.9278 86.1232C96.9278 86.6632 97.2278 86.8672 98.2838 87.1432C99.3758 87.4192 100.096 87.8872 100.096 88.8832C100.096 90.0592 99.0038 90.6352 97.9478 90.6352C97.1798 90.6352 96.4478 90.3952 95.8718 90.0352Z" fill="black"/>
<path d="M131.451 48.9912V49.0152C132.327 49.1592 133.323 49.8432 133.323 51.1032C133.323 52.7712 131.967 53.4672 130.515 53.4672H127.479V44.9712H130.215C131.751 44.9712 132.951 45.6672 132.951 47.1312C132.951 48.1392 132.195 48.7872 131.451 48.9912ZM130.131 45.8352H128.511V48.6192H130.191C131.091 48.6192 131.967 48.1752 131.967 47.2152C131.967 46.2072 131.103 45.8352 130.131 45.8352ZM130.431 49.4832H128.511V52.6032H130.347C131.451 52.6032 132.267 52.1352 132.267 51.0912C132.267 49.9632 131.271 49.4832 130.431 49.4832Z" fill="black"/>
<path d="M134.522 50.5992C134.522 48.7392 135.854 47.5272 137.558 47.5272C139.274 47.5272 140.594 48.6912 140.594 50.5752C140.594 52.4352 139.274 53.6472 137.558 53.6472C135.854 53.6472 134.522 52.4712 134.522 50.5992ZM135.506 50.5752C135.506 51.8472 136.31 52.8552 137.558 52.8552C138.806 52.8552 139.61 51.8472 139.61 50.5992C139.61 49.3392 138.806 48.3312 137.558 48.3312C136.31 48.3312 135.506 49.3272 135.506 50.5752Z" fill="black"/>
<path d="M143.156 48.3432H143.168C143.852 47.7912 144.344 47.5392 145.148 47.5392C146.528 47.5392 147.32 48.4272 147.32 49.7232V53.4672H146.348V49.7952C146.348 49.0152 145.868 48.3312 144.932 48.3312C144.308 48.3312 143.804 48.6312 143.192 49.2432V53.4672H142.22V48.9432C142.22 48.4752 142.184 48.1032 142.112 47.7072H143.06C143.108 47.8872 143.144 48.1512 143.156 48.3432Z" fill="black"/>
<path d="M153.597 51.9552V49.1952C152.889 48.5952 152.409 48.3312 151.617 48.3312C150.489 48.3312 149.733 49.3392 149.733 50.5752C149.733 51.8352 150.501 52.8552 151.653 52.8552C152.433 52.8552 152.973 52.5672 153.597 51.9552ZM153.597 52.8312H153.585C153.033 53.3112 152.505 53.6352 151.569 53.6352C149.925 53.6352 148.749 52.4472 148.749 50.6112C148.749 48.7392 149.973 47.5392 151.545 47.5392C152.457 47.5392 153.057 47.8512 153.585 48.2232H153.597V44.9712H154.581V53.4672H153.597V52.8312Z" fill="black"/>
<path d="M133.593 88.4992V90.4672H132.561V88.4992H128.721V87.6352C129.525 85.8232 130.941 83.6632 132.273 81.9712H133.581V87.6952H134.769V88.4992H133.593ZM132.573 82.9552H132.537C131.457 84.3712 130.341 86.1472 129.645 87.6952H132.573V82.9552Z" fill="black"/>
<path d="M139.192 93.4312V92.5432C139.648 92.3872 140.044 92.1352 140.44 91.0792L140.536 90.8272C140.62 90.5992 140.62 90.4672 140.524 90.2392L138.304 84.7072H139.396L141.148 89.5192L142.792 84.7072H143.836L141.388 91.1632C140.824 92.6632 140.248 93.2632 139.192 93.4312Z" fill="black"/>
<path d="M146.032 85.6192H146.056C146.416 84.8632 147.112 84.5392 147.976 84.5392H148.156V85.4152C148.036 85.3912 147.904 85.3792 147.784 85.3792C146.992 85.3792 146.5 85.8112 146.08 86.5672V90.4672H145.108V85.9432C145.108 85.4752 145.072 85.1032 145 84.7072H145.948C145.996 84.9472 146.032 85.2832 146.032 85.6192Z" fill="black"/>
<path d="M148.872 90.0352V88.9312C149.436 89.4352 150.204 89.8552 150.948 89.8552C151.608 89.8552 152.112 89.5432 152.112 88.9672C152.112 88.3192 151.668 88.1512 150.564 87.8752C149.544 87.6232 148.944 87.0592 148.944 86.1952C148.944 85.0432 150.072 84.5272 151.02 84.5272C151.752 84.5272 152.316 84.7192 152.856 85.0552V86.1112C152.268 85.6192 151.716 85.3192 151.032 85.3192C150.492 85.3192 149.928 85.5472 149.928 86.1232C149.928 86.6632 150.228 86.8672 151.284 87.1432C152.376 87.4192 153.096 87.8872 153.096 88.8832C153.096 90.0592 152.004 90.6352 150.948 90.6352C150.18 90.6352 149.448 90.3952 148.872 90.0352Z" fill="black"/>
<path d="M185.451 48.9912V49.0152C186.327 49.1592 187.323 49.8432 187.323 51.1032C187.323 52.7712 185.967 53.4672 184.515 53.4672H181.479V44.9712H184.215C185.751 44.9712 186.951 45.6672 186.951 47.1312C186.951 48.1392 186.195 48.7872 185.451 48.9912ZM184.131 45.8352H182.511V48.6192H184.191C185.091 48.6192 185.967 48.1752 185.967 47.2152C185.967 46.2072 185.103 45.8352 184.131 45.8352ZM184.431 49.4832H182.511V52.6032H184.347C185.451 52.6032 186.267 52.1352 186.267 51.0912C186.267 49.9632 185.271 49.4832 184.431 49.4832Z" fill="black"/>
<path d="M188.522 50.5992C188.522 48.7392 189.854 47.5272 191.558 47.5272C193.274 47.5272 194.594 48.6912 194.594 50.5752C194.594 52.4352 193.274 53.6472 191.558 53.6472C189.854 53.6472 188.522 52.4712 188.522 50.5992ZM189.506 50.5752C189.506 51.8472 190.31 52.8552 191.558 52.8552C192.806 52.8552 193.61 51.8472 193.61 50.5992C193.61 49.3392 192.806 48.3312 191.558 48.3312C190.31 48.3312 189.506 49.3272 189.506 50.5752Z" fill="black"/>
<path d="M197.156 48.3432H197.168C197.852 47.7912 198.344 47.5392 199.148 47.5392C200.528 47.5392 201.32 48.4272 201.32 49.7232V53.4672H200.348V49.7952C200.348 49.0152 199.868 48.3312 198.932 48.3312C198.308 48.3312 197.804 48.6312 197.192 49.2432V53.4672H196.22V48.9432C196.22 48.4752 196.184 48.1032 196.112 47.7072H197.06C197.108 47.8872 197.144 48.1512 197.156 48.3432Z" fill="black"/>
<path d="M207.597 51.9552V49.1952C206.889 48.5952 206.409 48.3312 205.617 48.3312C204.489 48.3312 203.733 49.3392 203.733 50.5752C203.733 51.8352 204.501 52.8552 205.653 52.8552C206.433 52.8552 206.973 52.5672 207.597 51.9552ZM207.597 52.8312H207.585C207.033 53.3112 206.505 53.6352 205.569 53.6352C203.925 53.6352 202.749 52.4472 202.749 50.6112C202.749 48.7392 203.973 47.5392 205.545 47.5392C206.457 47.5392 207.057 47.8512 207.585 48.2232H207.597V44.9712H208.581V53.4672H207.597V52.8312Z" fill="black"/>
<path d="M185.961 81.9712H187.125L184.785 85.5712L184.809 85.5952C185.073 85.3792 185.589 85.2472 186.021 85.2472C187.485 85.2472 188.625 86.3632 188.625 87.8992C188.625 89.5432 187.413 90.6592 185.781 90.6592C184.137 90.6592 182.925 89.5072 182.925 87.9232C182.925 87.0592 183.237 86.3632 183.729 85.5472L185.961 81.9712ZM185.781 89.8432C186.885 89.8432 187.641 89.0392 187.641 87.9232C187.641 86.8432 186.909 86.0272 185.805 86.0272C184.701 86.0272 183.921 86.8312 183.921 87.9352C183.921 89.0032 184.677 89.8432 185.781 89.8432Z" fill="black"/>
<path d="M193.192 93.4312V92.5432C193.648 92.3872 194.044 92.1352 194.44 91.0792L194.536 90.8272C194.62 90.5992 194.62 90.4672 194.524 90.2392L192.304 84.7072H193.396L195.148 89.5192L196.792 84.7072H197.836L195.388 91.1632C194.824 92.6632 194.248 93.2632 193.192 93.4312Z" fill="black"/>
<path d="M200.032 85.6192H200.056C200.416 84.8632 201.112 84.5392 201.976 84.5392H202.156V85.4152C202.036 85.3912 201.904 85.3792 201.784 85.3792C200.992 85.3792 200.5 85.8112 200.08 86.5672V90.4672H199.108V85.9432C199.108 85.4752 199.072 85.1032 199 84.7072H199.948C199.996 84.9472 200.032 85.2832 200.032 85.6192Z" fill="black"/>
<path d="M202.872 90.0352V88.9312C203.436 89.4352 204.204 89.8552 204.948 89.8552C205.608 89.8552 206.112 89.5432 206.112 88.9672C206.112 88.3192 205.668 88.1512 204.564 87.8752C203.544 87.6232 202.944 87.0592 202.944 86.1952C202.944 85.0432 204.072 84.5272 205.02 84.5272C205.752 84.5272 206.316 84.7192 206.856 85.0552V86.1112C206.268 85.6192 205.716 85.3192 205.032 85.3192C204.492 85.3192 203.928 85.5472 203.928 86.1232C203.928 86.6632 204.228 86.8672 205.284 87.1432C206.376 87.4192 207.096 87.8872 207.096 88.8832C207.096 90.0592 206.004 90.6352 204.948 90.6352C204.18 90.6352 203.448 90.3952 202.872 90.0352Z" fill="black"/>
<path d="M239.451 48.9912V49.0152C240.327 49.1592 241.323 49.8432 241.323 51.1032C241.323 52.7712 239.967 53.4672 238.515 53.4672H235.479V44.9712H238.215C239.751 44.9712 240.951 45.6672 240.951 47.1312C240.951 48.1392 240.195 48.7872 239.451 48.9912ZM238.131 45.8352H236.511V48.6192H238.191C239.091 48.6192 239.967 48.1752 239.967 47.2152C239.967 46.2072 239.103 45.8352 238.131 45.8352ZM238.431 49.4832H236.511V52.6032H238.347C239.451 52.6032 240.267 52.1352 240.267 51.0912C240.267 49.9632 239.271 49.4832 238.431 49.4832Z" fill="black"/>
<path d="M242.522 50.5992C242.522 48.7392 243.854 47.5272 245.558 47.5272C247.274 47.5272 248.594 48.6912 248.594 50.5752C248.594 52.4352 247.274 53.6472 245.558 53.6472C243.854 53.6472 242.522 52.4712 242.522 50.5992ZM243.506 50.5752C243.506 51.8472 244.31 52.8552 245.558 52.8552C246.806 52.8552 247.61 51.8472 247.61 50.5992C247.61 49.3392 246.806 48.3312 245.558 48.3312C244.31 48.3312 243.506 49.3272 243.506 50.5752Z" fill="black"/>
<path d="M251.156 48.3432H251.168C251.852 47.7912 252.344 47.5392 253.148 47.5392C254.528 47.5392 255.32 48.4272 255.32 49.7232V53.4672H254.348V49.7952C254.348 49.0152 253.868 48.3312 252.932 48.3312C252.308 48.3312 251.804 48.6312 251.192 49.2432V53.4672H250.22V48.9432C250.22 48.4752 250.184 48.1032 250.112 47.7072H251.06C251.108 47.8872 251.144 48.1512 251.156 48.3432Z" fill="black"/>
<path d="M261.597 51.9552V49.1952C260.889 48.5952 260.409 48.3312 259.617 48.3312C258.489 48.3312 257.733 49.3392 257.733 50.5752C257.733 51.8352 258.501 52.8552 259.653 52.8552C260.433 52.8552 260.973 52.5672 261.597 51.9552ZM261.597 52.8312H261.585C261.033 53.3112 260.505 53.6352 259.569 53.6352C257.925 53.6352 256.749 52.4472 256.749 50.6112C256.749 48.7392 257.973 47.5392 259.545 47.5392C260.457 47.5392 261.057 47.8512 261.585 48.2232H261.597V44.9712H262.581V53.4672H261.597V52.8312Z" fill="black"/>
<path d="M240.897 85.9432V85.9672C241.965 86.3272 242.505 87.1912 242.505 88.1632C242.505 89.7712 241.221 90.6352 239.721 90.6352C238.197 90.6352 236.925 89.7712 236.925 88.1632C236.925 87.2032 237.477 86.3032 238.533 85.9792V85.9432C237.657 85.6072 237.189 84.8272 237.189 84.0232C237.189 82.6192 238.341 81.8032 239.721 81.8032C241.065 81.8032 242.241 82.6192 242.241 84.0232C242.241 84.8272 241.773 85.6312 240.897 85.9432ZM239.721 82.5832C238.869 82.5832 238.221 83.2192 238.221 84.0832C238.221 84.8992 238.833 85.6312 239.721 85.6312C240.585 85.6312 241.197 84.8992 241.197 84.0832C241.197 83.2192 240.561 82.5832 239.721 82.5832ZM239.721 86.3752C238.725 86.3752 237.981 87.1192 237.981 88.1392C237.981 89.0992 238.653 89.8792 239.721 89.8792C240.777 89.8792 241.437 89.0992 241.437 88.1392C241.437 87.1192 240.705 86.3752 239.721 86.3752Z" fill="black"/>
<path d="M247.192 93.4312V92.5432C247.648 92.3872 248.044 92.1352 248.44 91.0792L248.536 90.8272C248.62 90.5992 248.62 90.4672 248.524 90.2392L246.304 84.7072H247.396L249.148 89.5192L250.792 84.7072H251.836L249.388 91.1632C248.824 92.6632 248.248 93.2632 247.192 93.4312Z" fill="black"/>
<path d="M254.032 85.6192H254.056C254.416 84.8632 255.112 84.5392 255.976 84.5392H256.156V85.4152C256.036 85.3912 255.904 85.3792 255.784 85.3792C254.992 85.3792 254.5 85.8112 254.08 86.5672V90.4672H253.108V85.9432C253.108 85.4752 253.072 85.1032 253 84.7072H253.948C253.996 84.9472 254.032 85.2832 254.032 85.6192Z" fill="black"/>
<path d="M256.872 90.0352V88.9312C257.436 89.4352 258.204 89.8552 258.948 89.8552C259.608 89.8552 260.112 89.5432 260.112 88.9672C260.112 88.3192 259.668 88.1512 258.564 87.8752C257.544 87.6232 256.944 87.0592 256.944 86.1952C256.944 85.0432 258.072 84.5272 259.02 84.5272C259.752 84.5272 260.316 84.7192 260.856 85.0552V86.1112C260.268 85.6192 259.716 85.3192 259.032 85.3192C258.492 85.3192 257.928 85.5472 257.928 86.1232C257.928 86.6632 258.228 86.8672 259.284 87.1432C260.376 87.4192 261.096 87.8872 261.096 88.8832C261.096 90.0592 260.004 90.6352 258.948 90.6352C258.18 90.6352 257.448 90.3952 256.872 90.0352Z" fill="black"/>
<path d="M124.508 12.5362C125.204 12.3082 125.816 11.6722 125.816 10.7122C125.816 9.24816 124.64 8.50416 123.008 8.50416H119.948V17.0002H123.32C124.952 17.0002 126.188 16.2442 126.188 14.5882C126.188 13.4482 125.408 12.7402 124.508 12.5722V12.5362ZM122.924 9.86016C123.656 9.86016 124.256 10.1962 124.256 10.9402C124.256 11.6482 123.656 12.0202 122.984 12.0202H121.592V9.86016H122.924ZM123.14 13.2442C123.8 13.2442 124.496 13.6522 124.496 14.4922C124.496 15.2602 123.896 15.6682 123.104 15.6682H121.592V13.2442H123.14Z" fill="black"/>
<path d="M132.523 8.26416C129.979 8.26416 128.071 10.0642 128.071 12.7282C128.071 15.4162 129.979 17.2402 132.523 17.2402C135.079 17.2402 136.987 15.4882 136.987 12.8002C136.987 10.1242 135.091 8.26416 132.523 8.26416ZM132.523 15.7282C130.951 15.7282 129.835 14.4202 129.835 12.7282C129.835 11.0722 130.963 9.80016 132.523 9.80016C134.107 9.80016 135.235 11.1202 135.235 12.8002C135.235 14.4682 134.119 15.7282 132.523 15.7282Z" fill="black"/>
<path d="M139.388 17.0002H141.032L140.96 11.0962H141.008L144.692 17.0002H146.576V8.50416H144.908L144.992 14.5762H144.956L141.224 8.50416H139.388V17.0002Z" fill="black"/>
<path d="M152.49 17.0002C155.19 17.0002 157.122 15.5242 157.122 12.7282C157.122 9.80016 155.142 8.50416 152.334 8.50416H149.43V17.0002H152.49ZM152.418 9.89616C154.122 9.89616 155.358 10.8322 155.358 12.7402C155.358 14.7682 154.146 15.6322 152.346 15.6322H151.134V9.89616H152.418Z" fill="black"/>
<path d="M163.561 17.0002H168.685V15.6322H165.205V8.50416H163.561V17.0002Z" fill="black"/>
<path d="M174.115 9.93216L175.495 13.8562H172.699L174.115 9.93216ZM176.599 17.0002H178.435L175.159 8.50416H173.131L169.807 17.0002H171.559L172.207 15.2242H175.975L176.599 17.0002Z" fill="black"/>
<path d="M183.388 17.0002C186.088 17.0002 188.02 15.5242 188.02 12.7282C188.02 9.80016 186.04 8.50416 183.232 8.50416H180.328V17.0002H183.388ZM183.316 9.89616C185.02 9.89616 186.256 10.8322 186.256 12.7402C186.256 14.7682 185.044 15.6322 183.244 15.6322H182.032V9.89616H183.316Z" fill="black"/>
<path d="M193.442 17.0002C196.142 17.0002 198.074 15.5242 198.074 12.7282C198.074 9.80016 196.094 8.50416 193.286 8.50416H190.382V17.0002H193.442ZM193.37 9.89616C195.074 9.89616 196.31 10.8322 196.31 12.7402C196.31 14.7682 195.098 15.6322 193.298 15.6322H192.086V9.89616H193.37Z" fill="black"/>
<path d="M200.436 17.0002H206.16V15.6322H202.128V13.3522H205.74V11.9722H202.128V9.89616H206.016V8.50416H200.436V17.0002Z" fill="black"/>
<path d="M210.2 9.89616H211.604C212.396 9.89616 213.056 10.2322 213.056 11.0722C213.056 11.8162 212.504 12.2602 211.58 12.2602H210.2V9.89616ZM208.556 17.0002H210.2V13.5322H211.412L213.356 17.0002H215.288L213.008 13.2922C213.968 13.0042 214.784 12.2962 214.784 11.0242C214.784 9.15216 213.38 8.50416 211.808 8.50416H208.556V17.0002Z" fill="black"/>
<path d="M88.0027 61.336L85.1707 69.184H90.7627L88.0027 61.336ZM92.9707 75.472L91.7227 71.92H84.1867L82.8907 75.472H79.3867L86.0347 58.48H90.0907L96.6427 75.472H92.9707Z" fill="#94C78A"/>
<path d="M144.34 66.544V66.616C146.14 66.952 147.7 68.368 147.7 70.648C147.7 73.96 145.228 75.472 141.964 75.472H135.22V58.48H141.34C144.604 58.48 146.956 59.968 146.956 62.896C146.956 64.816 145.732 66.088 144.34 66.544ZM141.172 61.192H138.508V65.512H141.292C142.636 65.512 143.836 64.768 143.836 63.352C143.836 61.864 142.636 61.192 141.172 61.192ZM141.604 67.96H138.508V72.808H141.532C143.116 72.808 144.316 71.992 144.316 70.456C144.316 68.776 142.924 67.96 141.604 67.96Z" fill="#94C78A"/>
<path d="M202.246 70.72V74.2C200.686 75.352 198.67 75.952 196.51 75.952C191.494 75.952 187.702 72.304 187.702 66.976C187.702 61.648 191.494 58 196.438 58C198.526 58 200.542 58.6 202.078 59.56V63.04C200.35 61.768 198.598 61.072 196.798 61.072C193.534 61.072 191.23 63.544 191.23 66.976C191.23 70.432 193.558 72.928 196.846 72.928C198.742 72.928 200.566 72.184 202.246 70.72Z" fill="#94C78A"/>
<path d="M247.806 75.472H241.686V58.48H247.494C253.11 58.48 257.07 61.072 257.07 66.928C257.07 72.52 253.206 75.472 247.806 75.472ZM247.662 61.264H245.094V72.736H247.518C251.118 72.736 253.542 71.008 253.542 66.952C253.542 63.136 251.07 61.264 247.662 61.264Z" fill="#94C78A"/>
</svg>
