<svg width="12" height="12" viewBox="0 0 12 12" fill="none"
    xmlns="http://www.w3.org/2000/svg">
    <circle cx="6" cy="6" r="6" fill="white"/>
    <path d="M6 0C4.84023 -1.38301e-08 3.70532 0.336122 2.73261 0.96769C1.75989 1.59926 0.99106 2.4992 0.519155 3.55862C0.0472502 4.61804 -0.107503 5.79151 0.0736233 6.93705C0.254749 8.08258 0.763991 9.15107 1.53972 10.0132L3.76986 8.00661C3.382 7.57554 3.12737 7.04129 3.03681 6.46852C2.94625 5.89576 3.02363 5.30902 3.25958 4.77931C3.49553 4.2496 3.87995 3.79963 4.3663 3.48385C4.85266 3.16806 5.42012 3 6 3L6 0Z" fill="#1A3800"/>
    <path d="M1.57792 10.0553C2.39255 10.9436 3.45583 11.566 4.62925 11.8413C5.80267 12.1167 7.03181 12.0323 8.15656 11.599C9.28131 11.1658 10.2495 10.4039 10.935 9.41255C11.6205 8.42119 11.9916 7.24635 11.9999 6.04109L8.99993 6.02055C8.9958 6.62318 8.81027 7.2106 8.46751 7.70628C8.12475 8.20195 7.64065 8.58291 7.07828 8.79952C6.51591 9.01613 5.90133 9.05834 5.31463 8.92066C4.72792 8.78298 4.19627 8.47179 3.78896 8.02763L1.57792 10.0553Z" fill="#408800"/>
    <path d="M12 6C12 5.21207 11.8448 4.43185 11.5433 3.7039C11.2417 2.97595 10.7998 2.31451 10.2426 1.75736C9.68549 1.20021 9.02405 0.758251 8.2961 0.456723C7.56815 0.155195 6.78793 -3.44416e-08 6 0L6 3C6.39397 3 6.78407 3.0776 7.14805 3.22836C7.51203 3.37913 7.84274 3.6001 8.12132 3.87868C8.3999 4.15726 8.62087 4.48797 8.77164 4.85195C8.9224 5.21593 9 5.60603 9 6H12Z" fill="#92B672"/>
    <path d="M6 0V6M6 6L1.5 10M6 6H12" stroke="white"/>
</svg>
