<svg width="34" height="46" viewBox="0 0 34 46" fill="none" xmlns="http://www.w3.org/2000/svg">
<path fill-rule="evenodd" clip-rule="evenodd" d="M33 44.2941H1V0.999998H21.7059L33 12.2941V44.2941Z" fill="url(#paint0_linear_3724_109667)" stroke="black" stroke-width="1.75" stroke-linecap="round" stroke-linejoin="round"/>
<path d="M21.7059 0.999998V12.2941H33.0001" stroke="black" stroke-width="1.75" stroke-linecap="round" stroke-linejoin="round"/>
<path d="M10.6084 21.8217V23.9394" stroke="black" stroke-width="1.75" stroke-linecap="round" stroke-linejoin="round"/>
<path d="M10.6084 7V9.11576" stroke="black" stroke-width="1.75" stroke-linecap="round" stroke-linejoin="round"/>
<path d="M7.43201 18.6452C7.43201 20.4014 8.85507 21.8207 10.6075 21.8207C12.3619 21.8207 13.7849 20.4014 13.7849 18.6452C13.7849 16.8946 12.3619 15.4696 10.6075 15.4696C8.85507 15.4696 7.43201 14.0485 7.43201 12.2922C7.43201 10.5398 8.85507 9.1167 10.6075 9.1167C12.3619 9.1167 13.7849 10.5398 13.7849 12.2922" stroke="black" stroke-width="1.75" stroke-linecap="round" stroke-linejoin="round"/>
<path d="M7 29.5873H27.5496" stroke="black" stroke-width="1.75" stroke-linecap="round" stroke-linejoin="round"/>
<path d="M18.1672 25.8226H27.5489" stroke="black" stroke-width="1.75" stroke-linecap="round" stroke-linejoin="round"/>
<path d="M21.9026 22.0579H27.5496" stroke="black" stroke-width="1.75" stroke-linecap="round" stroke-linejoin="round"/>
<path d="M21.9026 18.2932H27.5496" stroke="black" stroke-width="1.75" stroke-linecap="round" stroke-linejoin="round"/>
<path d="M7 33.352H27.5496" stroke="black" stroke-width="1.75" stroke-linecap="round" stroke-linejoin="round"/>
<path d="M7 37.1168H27.5496" stroke="black" stroke-width="1.75" stroke-linecap="round" stroke-linejoin="round"/>
<defs>
<linearGradient id="paint0_linear_3724_109667" x1="33" y1="44" x2="1" y2="0.999998" gradientUnits="userSpaceOnUse">
<stop offset="0.213027" stop-color="#368728" stop-opacity="0.44"/>
<stop offset="0.833333" stop-color="#DCFFD6" stop-opacity="0"/>
</linearGradient>
</defs>
</svg>
