<?xml version="1.0" encoding="UTF-8"?>
<svg width="100%" height="100%" viewBox="0 0 96 96" version="1.1" xmlns="http://www.w3.org/2000/svg" xmlns:xlink="http://www.w3.org/1999/xlink">
	<title>Group 3</title>
	<g id="Multiple-Preset-views" stroke="none" stroke-width="1" fill="none" fill-rule="evenodd">
		<circle id="Oval-Copy-7" fill="#F2F2F2" cx="48" cy="48" r="48"></circle>
		<g id="Group" transform="translate(20.000000, 28.000000)">
			<g id="Group-6" stroke-linecap="round">
				<g id="Group-823"
				  transform="translate(27.500000, 19.783059) rotate(-180.000000) translate(-27.500000, -19.783059) translate(0.000000, 0.474548)" fill="#FFFFFF"
				  stroke="#4C4C4C" stroke-linejoin="round">
					<polyline id="Stroke-952" points="55 7.5625 55 37.8125 7.5862069 37.8125 7.5862069 10.9520349"></polyline>
					<polyline id="Stroke-951" points="51.2068966 3.78125 51.2068966 34.03125 3.79310345 34.03125 3.79310345 7.11482558"></polyline>
					<polygon id="Stroke-950" points="0 30.25 47.4137931 30.25 47.4137931 0 0 0"></polygon>
				</g>
				<line x1="13.6953125" y1="17.6071948" x2="30.7109375" y2="17.6071948" id="Line" stroke="#413636"></line>
				<line x1="13.6953125" y1="21.0446948" x2="30.7109375" y2="21.0446948" id="Line" stroke="#413636"></line>
				<line x1="13.7526042" y1="24.4821948" x2="24.2868017" y2="24.4821948" id="Line" stroke="#413636"></line>
				<line x1="27.359375" y1="24.4821948" x2="30.796875" y2="24.4821948" id="Line" stroke="#413636"></line>
				<line x1="13.6953125" y1="27.9196948" x2="30.7109375" y2="27.9196948" id="Line" stroke="#413636"></line>
			</g>
			<g id="award-ribbon-star-3" transform="translate(34.000000, 18.000000)" stroke-linejoin="round">
				<path
				  d="M13.6046512,17.6744186 L13.6046512,24.8526596 C13.6046512,25.4808212 13.2469012,25.63158 12.8092762,25.1872984 L9.10465116,21.4263239 L5.40002616,25.1872984 C4.96240116,25.63158 4.60465116,25.4808212 4.60465116,25.3334888 L4.60465116,17.6755607"
				  id="Shape" stroke="#6892AF" fill="#FFFFFF" stroke-linecap="square"></path>
				<circle id="Oval" stroke="#FCC272" stroke-linecap="round" cx="9" cy="9.20930233" r="9"></circle>
				<circle id="Oval" stroke="#FCC272" fill="#FDD6A2" stroke-linecap="round" cx="8.89534884" cy="9.10465116" r="6.1744186"></circle>
			</g>
		</g>
	</g>
</svg>
