<?xml version="1.0" encoding="UTF-8"?>
<svg width="12px" height="12px" viewBox="0 0 12 12" version="1.1" xmlns="http://www.w3.org/2000/svg" xmlns:xlink="http://www.w3.org/1999/xlink">
    <!-- Generator: Sketch 64 (93537) - https://sketch.com -->
    <title>Group 6</title>
    <desc>Created with Sketch.</desc>
    <defs>
        <path d="M5.99960003,0 C5.89560771,0 5.79081544,0.0511962204 5.74841857,0.15278872 L4.20373261,3.83251706 L0.248824589,4.17489178 C0.14003262,4.18449107 0.0472394711,4.25888558 0.0136419515,4.36367785 C-0.0207555091,4.46847011 0.0112421286,4.58286166 0.0944359867,4.65565629 L3.09421452,7.27226311 L2.1950809,11.1631759 C2.17028273,11.2703679 2.21187966,11.3823597 2.30067311,11.4471549 C2.34786962,11.4823523 2.40466543,11.499951 2.46146124,11.499951 C2.51025764,11.499951 2.55825409,11.4871519 2.6014509,11.459954 L5.99960003,9.39690626 L9.3985491,11.459954 C9.44174591,11.486352 9.49054231,11.499951 9.5393387,11.499951 C9.59533457,11.499951 9.65213038,11.4823523 9.69932689,11.4471549 C9.7873204,11.3823597 9.82891732,11.2703679 9.8049191,11.1631759 L8.90578548,7.27226311 L11.905564,4.65565629 C11.9887579,4.5836616 12.0207555,4.46847011 11.986358,4.36367785 C11.9519606,4.25888558 11.8599674,4.18449107 11.7503755,4.17489178 L7.79546745,3.833317 L6.25078149,0.153588661 C6.20838462,0.0511962204 6.10359235,0 5.99960003,0 L5.99960003,0 L5.99960003,0 Z" id="path-1"></path>
    </defs>
    <g id="Multiple-Preset-views" stroke="none" stroke-width="1" fill="none" fill-rule="evenodd">
        <g id="Fund-performance-min-width" transform="translate(-277.000000, -963.000000)">
            <g id="Group-6" transform="translate(277.000000, 963.000000)">
                <g id="Icons-/-Star-filled">
                    <rect id="Rectangle" fill="#D8D8D8" opacity="0" x="0" y="0" width="12" height="12"></rect>
                    <g id="color">
                        <mask id="mask-2" fill="white">
                            <use xlink:href="#path-1"></use>
                        </mask>
                        <g id="Mask"></g>
                        <g id="↳-color" mask="url(#mask-2)" fill="#DF722D" fill-rule="nonzero">
                            <rect id="$color-text-link-on-light" x="0" y="0" width="12" height="12"></rect>
                        </g>
                    </g>
                </g>
            </g>
        </g>
    </g>
</svg>