<?xml version="1.0" encoding="UTF-8"?>
<svg width="12px" height="12px" viewBox="0 0 12 12" version="1.1" xmlns="http://www.w3.org/2000/svg" xmlns:xlink="http://www.w3.org/1999/xlink">
    <!-- Generator: Sketch 60 (88103) - https://sketch.com -->
    <title>Group 4</title>
    <desc>Created with Sketch.</desc>
    <g id="Final-" stroke="none" stroke-width="1" fill="none" fill-rule="evenodd">
        <g id="Additions" transform="translate(-238.000000, -912.000000)">
            <g id="Group-4" transform="translate(238.000000, 912.000000)">
                <circle id="Oval" fill="#013B61" cx="6" cy="6" r="6"></circle>
                <path d="M5.996,9.16 C7.7,9.16 8.972,8.008 8.972,6.2 C8.972,4.408 7.7,3.176 5.996,3.176 C4.3,3.176 3.028,4.352 3.028,6.144 C3.028,7.944 4.3,9.16 5.996,9.16 Z M5.996,7.928 C5.084,7.928 4.428,7.16 4.428,6.144 C4.428,5.16 5.084,4.416 5.996,4.416 C6.916,4.416 7.572,5.2 7.572,6.2 C7.572,7.2 6.916,7.928 5.996,7.928 Z" id="O" fill="#FFFFFF" fill-rule="nonzero"></path>
            </g>
        </g>
    </g>
</svg>