<svg width="15" height="15" viewBox="0 0 15 15" fill="none" xmlns="http://www.w3.org/2000/svg">
<path d="M14.5 7.5C14.5 11.366 11.366 14.5 7.5 14.5C3.63401 14.5 0.5 11.366 0.5 7.5C0.5 3.63401 3.63401 0.5 7.5 0.5C11.366 0.5 14.5 3.63401 14.5 7.5Z" fill="white" stroke="#999999"/>
<path d="M10.1176 3.94329V5.77158C9.31922 5.18144 8.2315 4.78801 7.45622 4.78801C6.76193 4.78801 6.2875 5.07729 6.2875 5.65587C6.2875 6.14187 6.6153 6.36208 7.40268 6.59559L7.76864 6.69729C9.55064 7.17172 10.3375 7.86601 10.3375 9.13887C10.3375 10.9672 8.72907 11.8697 7.07436 11.8697C6.06764 11.8697 4.9915 11.592 4.28564 11.1523V9.16201C5.19979 9.97201 6.35693 10.296 7.12064 10.296C7.76864 10.296 8.35879 10.053 8.35879 9.33558C8.35879 8.72229 7.79179 8.43301 6.87764 8.19001C5.09564 7.76187 4.30879 6.99815 4.30879 5.71372C4.30879 4.10529 5.70893 3.21429 7.45622 3.21429C8.57864 3.21429 9.4465 3.53829 10.1176 3.94329Z" fill="black"/>
</svg>
