<svg width="99" height="99" viewBox="0 0 99 99" fill="none" xmlns="http://www.w3.org/2000/svg">
<path d="M22.2757 71.5728H38.8811" stroke="#4C4C4C" stroke-width="2" stroke-linecap="round" stroke-linejoin="round"/>
<path d="M1.51889 46.6648H47.1838" stroke="#4C4C4C" stroke-width="2" stroke-linecap="round" stroke-linejoin="round"/>
<path d="M34.7297 59.1189V65.3459C34.7297 68.785 31.9418 71.573 28.5027 71.573" stroke="#4C4C4C" stroke-width="2" stroke-linecap="round" stroke-linejoin="round"/>
<path d="M84.5459 38.3622V5.15135C84.5459 2.85862 82.6873 1 80.3946 1H5.67024C3.37751 1 1.51889 2.85862 1.51889 5.15135V54.9676C1.51889 57.2603 3.37751 59.1189 5.67024 59.1189H38.8811" stroke="#4C4C4C" stroke-width="2" stroke-linecap="round" stroke-linejoin="round"/>
<path d="M61.7135 75.7244H47.1838V90.2541" stroke="#8BCCEA" stroke-width="3" stroke-linecap="round" stroke-linejoin="round"/>
<path d="M94.5798 80.843C91.0706 91.1331 80.8689 97.5907 70.0668 96.3594C59.2647 95.1281 50.7779 86.5403 49.6746 75.7244" stroke="#8BCCEA" stroke-width="3" stroke-linecap="round" stroke-linejoin="round"/>
<path d="M82.4703 67.4216H97V52.8918" stroke="#8BCCEA" stroke-width="3" stroke-linecap="round" stroke-linejoin="round"/>
<path d="M49.604 62.303C53.1132 52.0129 63.3149 45.5553 74.117 46.7866C84.9191 48.0179 93.4058 56.6057 94.5092 67.4216" stroke="#8BCCEA" stroke-width="3" stroke-linecap="round" stroke-linejoin="round"/>
</svg>
